<?xml version="1.0" encoding="utf-8"?><svg id="Layer_1" data-name="Layer 1" xmlns="http://www.w3.org/2000/svg" xmlns:xlink="http://www.w3.org/1999/xlink" version="1.1" viewBox="0 0 252 216"><defs><style>
      .cls-1 {
        fill: #7accc8;
      }

      .cls-1, .cls-2, .cls-3, .cls-4, .cls-5, .cls-6, .cls-7 {
        stroke-width: 0px;
      }

      .cls-2 {
        fill: url(#linear-gradient);
      }

      .cls-3 {
        fill: #006684;
      }

      .cls-4 {
        fill: #ef6e25;
      }

      .cls-5 {
        fill: #0ea3c4;
      }

      .cls-6 {
        fill: #fff;
      }

      .cls-7 {
        fill: #006683;
      }
    </style><linearGradient id="linear-gradient" x1="133.11" y1="138.74" x2="133.11" y2="42.73" gradientUnits="userSpaceOnUse"><stop offset="0" stop-color="#f36d21" /><stop offset=".56" stop-color="#f6861f" /><stop offset="1" stop-color="#f99e1f" /></linearGradient></defs><g><path class="cls-2" d="M179.14,113.65c1.28.77,2.04,1.25,2.76,1.71,1.06-.21,13.28-2.29,13.47-2.43,11.89-85.11-113.23-96.23-124.83-14.61-1.4,12.49-.35,24.43,9.33,40.41,20.21-19.14,48.08-30.14,75.91-30.01,3.06.01,15.42.16,23.34,4.92Z" /><path class="cls-3" d="M250.44,112.85c-93.47-2.97-177.98,47.5-192.75,57.13-1.03.67-1.72,2.8-2.04,3.05-.02.01,0,.05.02.04,69.85-37.77,163.2-48.94,174.48-50.18.5-.05.86.46.64.91-5.66,11.59-15.23,25.71-17.68,29.27-.26.37-.05.88.39.98l7.74,2.78c.23.05.46-.03.61-.2,12.61-14.56,26.31-37.93,29.12-42.82.24-.41-.05-.94-.53-.95Z" /><path class="cls-1" d="M221.65,163.33c-22.59-11.51-51.84-11.45-75.17-1.94-22.96,9.35-47.23,17.76-71.64,22.39-10.89,2.07-24.25,4.35-34.82-.26-.1-.06-.21-.08-.32,0-.12.09-.15.25-.06.37,5.53,6.72,16.78,9.31,25.08,10.49,20.88,2.36,41.97-.98,61.99-6.91,19.52-5.79,37.48-15.12,57.95-17.4,20.53-2.28,40.3,1.92,58.61,11.25.09.05.21.04.3-.03.12-.09.14-.27.04-.38-5.81-7.21-13.39-13.21-21.95-17.58Z" /><path class="cls-5" d="M215.24,182.2c-15.94-5.87-36.06-7.71-52.3-2.05-4.3,1.6-7.71,3.49-11.83,5-11.89,4.5-24.03,7.21-36.68,9.77-.11.02-.2.1-.22.22-.03.15.07.29.21.32,2.17.42,4.34.66,6.53.81,8.78.58,17.65-.22,26.23-2.27,5.36-1.28,10.67-3.21,15.65-5.58,8.28-3.7,17.38-4.99,26.76-5.66,8.37-.54,16.89-.41,25.53-.04.11,0,.23-.06.27-.17.05-.14-.01-.29-.15-.35Z" /><path class="cls-5" d="M49.5,177.91c-.05-1.03-.11-2.05-.18-3.06.26-6.03,1.59-21.84,8.37-34.13,0,0,5.73,1.92,4.28,11.36,0,0,5.02-4.58,4.01-11.67,0,0,2.33.44,5.38,6.96,0,0,2.63-8.38-5.11-12.88,0,0,1.08-3.98,7.76-3.22,0,0-6.27-4.76-11.92-1.11,0,0-1.16-8.1-7.14-8.12,0,0,3.01,6.33,1.72,8.48,0,0-5.89-4.24-11.19,3.35,0,0,6.89-.81,8.88.77,0,0-8.32,1.52-8.9,8.45,0,0,4.84-4.36,10.2-3.29,0,0-4.57,5.54-8.2,17.33-4.74-32.63-15.15-53.24-15.15-53.24,9.47-1.44,17.58,6.58,17.58,6.58-.45-12.17-14.87-15.51-14.87-15.51,3.61-2.61,15.6-.63,15.6-.63-8.65-13.7-19.29-6.76-19.29-6.76-2.07-3.88,3.7-14.69,3.7-14.69-10.46-.45-13.15,13.62-13.15,13.62-9.59-6.85-20.93.98-20.93.98,11.74-.78,13.3,6.26,13.3,6.26-13.89,7.24-9.98,22.1-9.98,22.1,5.87-11.15,9.98-11.74,9.98-11.74-2.35,12.32,6.06,20.73,6.06,20.73-1.76-16.63,8.41-19.53,8.41-19.53,13.69,27.81,10.95,73.32,10.95,73.32,6.41,4.11,9.83-.73,9.83-.73Z" /><path class="cls-6" d="M117.12,81.14c-1.58.05-3.22,1.02-3.77,1.74-.14.18-.37.12-.54-.03-2.96-2.67-7.63-2.09-9.93-1.1-.31.13-.24.63.1.64,6.97.14,8.91,2.7,9.65,3.92.2.32.67.34.86.01,1.79-3.1,5.5-3.58,7.57-3.61.34,0,.42-.42.15-.63-.8-.61-2.52-.98-4.07-.94Z" /><path class="cls-6" d="M136.94,62.65c-1.08-.81-3.39-1.32-5.48-1.26-2.13.06-4.33,1.37-5.08,2.34-.19.25-.5.17-.73-.04-3.98-3.6-10.26-2.82-13.37-1.48-.42.18-.32.85.13.86,9.38.18,11.98,3.64,12.99,5.28.27.44.9.46,1.16.01,2.41-4.17,7.4-4.82,10.18-4.86.46,0,.57-.57.2-.85Z" /><path class="cls-6" d="M152.94,74.77c-1.58.05-3.22,1.02-3.77,1.74-.14.18-.37.12-.54-.03-2.96-2.67-7.63-2.09-9.93-1.1-.31.13-.24.63.1.64,6.97.14,8.91,2.7,9.65,3.92.2.32.67.34.86.01,1.79-3.1,5.5-3.58,7.57-3.61.34,0,.42-.42.15-.63-.8-.61-2.52-.98-4.07-.94Z" /><g><path class="cls-3" d="M174.35,116.25c.05.23-.08.42-.53.53-6.22,1.51-12.44,2.99-18.58,4.75-1.37.4-2.75.8-4.12,1.22-4.79,1.43-9.55,2.97-14.29,4.56-1.65.56-3.29,1.12-4.94,1.68-12.4,4.32-24.5,9.46-36.41,14.98-6.04,2.79-12.03,5.68-18,8.61-2.99,1.47-5.97,2.95-8.96,4.43-5.7,2.85-7.99,4.03-8.24,3.67-.33-.5,3.27-3.5,4.38-4.42,20.95-17.41,31.59-25.78,46.38-32.98,8.57-4.16,17.67-7.2,27.01-9.05,2.3-.45,4.61-.9,6.93-1.25,2.63-.41,5.28-.69,7.95-.71,5.22-.04,10.43.34,15.57,1.27,1.1.2,2.21.44,3.25.85.77.31,2.37.96,2.6,1.86ZM165.94,116.48c-.37-.09-.74-.33-1.09-.47-.85-.35-1.73-.65-2.62-.89-3.85-1.03-7.81-.86-11.75-.6-4.05.27-8.04,1.04-12.01,1.83-.81.16-1.61.33-2.41.51l5.12,6.74c4.75-1.55,9.19-2.92,13.46-4.15,4.67-1.33,6.63-1.83,11.3-2.97ZM138.7,124.41l-4.98-7c-.86.2-1.71.42-2.56.65l-.42.12,4.73,7.31.67-.23s.01,0,.02-.01c.86-.28,1.71-.57,2.54-.84ZM133.47,126.17l-4.8-7.41c-.38.11-.77.23-1.15.35-.15.05-.29.09-.44.14l4.74,7.49,1.65-.57Z" /><path class="cls-6" d="M164.85,116.01c.35.14.72.38,1.09.47-4.67,1.14-6.63,1.64-11.3,2.97-4.27,1.23-8.71,2.6-13.46,4.15l-5.12-6.74c.8-.18,1.6-.35,2.41-.51,3.97-.79,7.96-1.56,12.01-1.83,3.94-.26,7.9-.43,11.75.6.89.24,1.77.54,2.62.89Z" /><path class="cls-6" d="M133.72,117.41l4.98,7c-.83.27-1.68.56-2.54.84t-.02.01l-.67.23-4.73-7.31.42-.12c.85-.23,1.7-.45,2.56-.65Z" /><path class="cls-6" d="M128.67,118.76l4.8,7.41-1.65.57-4.74-7.49c.15-.05.29-.09.44-.14.38-.12.77-.24,1.15-.35Z" /></g><g><path class="cls-7" d="M57.36,72.45l-1.67,4.72,2.35.83,1.52-4.29,3.11,1.1-1.52,4.29,5.55,1.96-1.38,3.91-14.13-5,3.05-8.63,3.11,1.1Z" /><path class="cls-7" d="M74.75,61.38c.39,2.15-.16,4.51-1.4,6.53-1.24,2.02-3.09,3.58-5.19,4.21-2.19.65-4.4.25-6.08-.78-1.7-1.04-3.08-2.84-3.47-5.08-.39-2.15.16-4.51,1.4-6.53s3.09-3.58,5.19-4.21c2.17-.66,4.4-.25,6.1.79,1.68,1.03,3.04,2.82,3.45,5.07ZM62.55,65.08c.22,1.15.94,2.07,1.84,2.62,1.13.69,2.26.6,3.04.38.99-.29,1.98-.95,2.71-2.13.74-1.2.89-2.35.68-3.35-.2-1-.8-2.01-1.77-2.61-1-.61-2.16-.68-3.13-.4-1.13.34-2.12,1.17-2.69,2.11-.6.98-.91,2.22-.68,3.38Z" /><path class="cls-7" d="M72.61,44.29c.84-.86,2.04-1.82,3.68-1.86,1.26-.04,2.51.55,3.36,1.38.91.9,1.38,2.02,1.34,3.09-.04.84-.38,1.67-.81,2.3l7.88.72-3.61,3.68-6.89-1.18,4.11,4.02-2.9,2.96-10.7-10.48,4.53-4.62ZM75.78,50.64l.55-.56c.44-.44.94-1.19.98-1.86,0-.43-.19-.93-.53-1.26-.32-.31-.81-.52-1.28-.49-.52.02-1.17.36-1.81,1.01l-.55.56,2.65,2.59Z" /><path class="cls-7" d="M87.49,36.12l6.81,9.49-3.37,2.42-6.81-9.49-2.76,1.98-1.92-2.68,8.9-6.38,1.92,2.68-2.76,1.98Z" /><path class="cls-7" d="M102.11,24.79l4.22,10.89,4.65-1.8,1.19,3.08-8.51,3.3-5.41-13.96,3.86-1.5Z" /><path class="cls-7" d="M125.47,31.9l-5.74.8-.72,2.64-4.34.61,4-15.69,4.48-.63,8.03,14.01-4.39.61-1.32-2.36ZM123.97,29.12l-2.45-4.56-1.06,5.05,3.51-.49Z" /><path class="cls-7" d="M137.57,19.17l-.7,8.84c-.05.63-.1,1.59.63,2.37.44.46,1.19.81,1.9.87s1.48-.15,1.96-.5c1.02-.71,1.08-1.81,1.15-2.63l.67-8.51,4.13.33-.68,8.57c-.12,1.57-.32,3.2-2.17,4.69-1.44,1.17-3.16,1.62-5.4,1.44-2.51-.2-4.23-1.15-5.14-2.21-1.27-1.52-1.29-3.44-1.16-5.03l.68-8.57,4.13.33Z" /><path class="cls-7" d="M148.22,35.28l4.18-14.38,5.22,1.52c1.54.45,4.06,1.39,5.52,3.75,1.32,2.14,1.07,4.31.61,5.86-.55,1.9-1.55,3.43-3.45,4.4-1.55.79-3.9,1.23-6.52.47l-5.56-1.62ZM153.12,33.27l.8.23c.97.28,2.35.59,3.66-.06.64-.31,1.57-1.02,2.03-2.61.39-1.34.28-2.61-.28-3.5-.7-1.09-1.92-1.54-2.91-1.83l-.97-.28-2.34,8.04Z" /><path class="cls-7" d="M176.3,33.51l-4.43-2.17-1.1,2.24,4.19,2.06-1.45,2.96-4.19-2.06-1.14,2.32,4.43,2.17-1.45,2.96-8.15-4,6.6-13.45,8.15,4-1.45,2.96Z" /><path class="cls-7" d="M187.87,37.37c.96.72,2.07,1.79,2.31,3.41.2,1.25-.23,2.56-.94,3.51-.77,1.02-1.83,1.63-2.9,1.72-.84.07-1.71-.16-2.38-.5l.29,7.91-4.11-3.11.3-6.98-3.47,4.59-3.3-2.5,9.04-11.95,5.16,3.9ZM181.96,41.33l.63.48c.5.38,1.3.79,1.97.73.42-.04.89-.31,1.18-.69.27-.36.42-.87.32-1.33-.09-.52-.51-1.12-1.23-1.67l-.63-.48-2.24,2.96Z" /><path class="cls-7" d="M185.55,54.77l11.63-9.44,3.43,4.22c1.01,1.25,2.54,3.46,2.39,6.23-.13,2.51-1.58,4.15-2.83,5.17-1.53,1.25-3.23,1.94-5.34,1.65-1.72-.24-3.9-1.21-5.62-3.33l-3.65-4.5ZM190.73,55.91l.53.65c.63.78,1.59,1.82,3.04,2.04.7.11,1.87.06,3.16-.99,1.08-.88,1.72-1.98,1.76-3.03.04-1.3-.7-2.36-1.35-3.16l-.63-.78-6.51,5.28Z" /><path class="cls-7" d="M201.43,74.63l-2.43-5.26-2.74.08-1.84-3.98,16.17-.72,1.9,4.11-11.07,11.75-1.86-4.02,1.87-1.95ZM203.66,72.38l3.65-3.67-5.14.45,1.49,3.22Z" /><path class="cls-7" d="M217.18,84.16l-11.44,2.33.99,4.88-3.23.66-1.82-8.94,14.68-2.99.83,4.06Z" /><path class="cls-7" d="M215.63,103.19l-.15-4.93-2.49.08.14,4.67-3.3.1-.14-4.67-2.58.08.15,4.93-3.3.1-.28-9.07,14.97-.46.28,9.07-3.3.1Z" /></g></g><g><path class="cls-4" d="M152.35,156.44l-11.11,3.89,2.22-4.91c.79-1.75,1.32-3.21,1.62-4.51.17-.71.3-1.53,0-2.42-.05-.15-.31-.87-.88-1.18-.29-.16-.71-.22-1.16-.06-.58.2-.88.61-1.01.98-.18.55-.05,1.39.1,1.88l-3.72,1.3c-.61-1.81-.28-3.4.19-4.38.61-1.26,1.68-2.27,3.4-2.87,2.08-.73,3.56-.34,4.41.07.76.36,1.92,1.15,2.54,2.93.61,1.74.22,3.23-.61,4.83l-1.57,2.98,4.53-1.59,1.07,3.05Z" /><path class="cls-4" d="M167.81,151.01c-.93,1.31-2.28,2.11-3.69,2.36-1.41.25-2.95-.03-4.28-.94-1.53-1.05-2.74-2.97-3.19-5.51-.46-2.56.02-4.78,1.09-6.29.93-1.3,2.28-2.1,3.69-2.36s2.95.03,4.28.94c1.53,1.04,2.74,2.97,3.2,5.53.45,2.53-.02,4.76-1.09,6.27ZM160.96,142.3c-.66.81-.82,2.65-.58,3.99.2,1.15.95,2.96,1.93,3.54.33.21.8.33,1.23.25.43-.08.83-.35,1.07-.66.68-.83.81-2.74.59-3.97-.23-1.28-1.05-3.03-1.93-3.56-.33-.21-.8-.33-1.23-.25-.43.08-.83.35-1.07.66Z" /><path class="cls-4" d="M187.69,151.35l-11.77.13,3.68-3.94c1.3-1.4,2.28-2.62,2.97-3.75.39-.62.78-1.35.77-2.3,0-.15-.01-.92-.46-1.4-.22-.24-.6-.43-1.08-.43-.62,0-1.03.3-1.27.61-.35.47-.49,1.3-.51,1.81l-3.94.04c0-1.92.82-3.31,1.58-4.09.98-1,2.31-1.61,4.14-1.63,2.2-.02,3.49.82,4.15,1.47.6.59,1.45,1.7,1.47,3.59.02,1.85-.82,3.13-2.13,4.38l-2.44,2.32,4.8-.05.04,3.23Z" /><path class="cls-4" d="M205.82,141.89l-5.03-.72-.49,1.57c.56,0,1,.03,1.19.06,1.94.28,3.05,1.19,3.63,1.99.56.75,1.07,1.95.83,3.63-.25,1.74-1.12,2.82-1.92,3.44-1.55,1.2-3.37,1.18-4.76.98-2.2-.32-3.64-1.1-4.71-2.01l1.07-3.45c.66.81,1.35,1.28,1.57,1.43.61.4,1.39.71,2.11.81.76.11,1.5-.05,2-.45.38-.3.69-.79.78-1.4.11-.76-.19-1.34-.47-1.67-.68-.81-2.03-1.03-2.51-1.09-1.02-.15-1.93-.05-2.77.22l2.39-7.64,7.56,1.09-.46,3.2Z" /></g></svg>